<svg width="823" height="659" viewBox="0 0 823 659" fill="none" xmlns="http://www.w3.org/2000/svg">
<g clip-path="url(#clip0_341_8)">
<path d="M67.31 528H47.51V415.8H67.31V528ZM136.712 460.35C133.962 460.35 130.827 461.01 127.307 462.33C123.787 463.65 119.607 466.235 114.767 470.085V528H95.7918V444.345H113.777V455.565C118.947 451.055 123.842 447.81 128.462 445.83C133.082 443.74 137.757 442.695 142.487 442.695C150.517 442.695 156.622 445.28 160.802 450.45C164.982 455.51 167.072 462.66 167.072 471.9V528H148.097V474.21C148.097 464.97 144.302 460.35 136.712 460.35ZM242.474 525.195C239.614 526.515 236.314 527.56 232.574 528.33C228.834 529.21 225.039 529.65 221.189 529.65C214.809 529.65 209.694 528.33 205.844 525.69C201.994 523.05 199.189 519.365 197.429 514.635C195.779 509.905 194.954 504.515 194.954 498.465V460.845H181.424V444.345H194.954V422.565H213.929V444.345H239.999V460.845H213.929V498.465C213.929 503.525 214.864 507.045 216.734 509.025C218.714 510.895 221.519 511.83 225.149 511.83C226.909 511.83 228.779 511.665 230.759 511.335C232.849 510.895 235.159 510.18 237.689 509.19L242.474 525.195ZM321.255 523.215C315.535 525.525 310.145 527.175 305.085 528.165C300.025 529.155 295.24 529.65 290.73 529.65C278.3 529.65 268.895 526.13 262.515 519.09C256.135 512.05 252.945 502.7 252.945 491.04V481.14C252.945 473.33 254.375 466.565 257.235 460.845C260.095 455.125 264.165 450.67 269.445 447.48C274.725 444.29 280.94 442.695 288.09 442.695C293.92 442.695 299.365 443.905 304.425 446.325C309.595 448.635 313.775 452.32 316.965 457.38C320.265 462.33 321.915 468.71 321.915 476.52C321.915 478.83 321.75 481.305 321.42 483.945C321.09 486.475 320.54 489.17 319.77 492.03H271.26C271.48 498.85 273.185 503.965 276.375 507.375C279.565 510.785 284.68 512.49 291.72 512.49C295.46 512.49 299.31 512.05 303.27 511.17C307.34 510.29 311.52 508.97 315.81 507.21L321.255 523.215ZM288.09 458.7C283.03 458.7 279.07 460.35 276.21 463.65C273.46 466.84 271.865 471.46 271.425 477.51H303.105C303.215 476.96 303.27 476.465 303.27 476.025C303.27 475.475 303.27 474.98 303.27 474.54C303.27 469.26 301.785 465.3 298.815 462.66C295.845 460.02 292.27 458.7 288.09 458.7ZM390.965 461.67C385.795 461.67 380.845 462.495 376.115 464.145C371.495 465.685 367.04 468.215 362.75 471.735V528H343.775V444.345H361.76V457.215C367.37 451.935 372.375 448.195 376.775 445.995C381.175 443.795 385.905 442.695 390.965 442.695V461.67ZM448.504 460.35C445.754 460.35 442.619 461.01 439.099 462.33C435.579 463.65 431.399 466.235 426.559 470.085V528H407.584V444.345H425.569V455.565C430.739 451.055 435.634 447.81 440.254 445.83C444.874 443.74 449.549 442.695 454.279 442.695C462.309 442.695 468.414 445.28 472.594 450.45C476.774 455.51 478.864 462.66 478.864 471.9V528H459.889V474.21C459.889 464.97 456.094 460.35 448.504 460.35Z" fill="#FFCE66"/>
<path d="M568.126 528V480.645H526.216V528H506.416V415.8H526.216V461.67H568.126V415.8H587.926V528H568.126ZM666.242 528V516.945C661.182 521.345 656.452 524.59 652.052 526.68C647.652 528.66 643.197 529.65 638.687 529.65C631.207 529.65 625.432 527.12 621.362 522.06C617.292 516.89 615.257 509.685 615.257 500.445V444.345H634.232V498.135C634.232 507.375 637.642 511.995 644.462 511.995C647.212 511.995 650.182 511.335 653.372 510.015C656.672 508.695 660.632 506.165 665.252 502.425V444.345H684.227V528H666.242ZM780.807 490.545C780.807 502.535 777.837 512.05 771.897 519.09C765.957 526.13 757.267 529.65 745.827 529.65C733.947 529.65 721.902 526.35 709.692 519.75V405.9H728.667V455.4C733.727 450.34 738.072 446.985 741.702 445.335C745.332 443.575 749.072 442.695 752.922 442.695C761.722 442.695 768.542 446.105 773.382 452.925C778.332 459.745 780.807 469.315 780.807 481.635V490.545ZM747.807 460.35C745.167 460.35 742.362 461.12 739.392 462.66C736.532 464.2 732.957 467.225 728.667 471.735V509.19C731.637 510.4 734.332 511.28 736.752 511.83C739.282 512.38 741.757 512.655 744.177 512.655C750.337 512.655 754.737 510.675 757.377 506.715C760.017 502.755 761.337 497.365 761.337 490.545V481.635C761.337 474.265 760.127 468.875 757.707 465.465C755.397 462.055 752.097 460.35 747.807 460.35Z" fill="black"/>
<path d="M352.426 34.5454V396H254.297V34.5454H352.426Z" fill="#FFCE66"/>
<path d="M422.519 196.23C414.236 196.23 404.793 198.218 394.19 202.194C383.587 206.17 370.997 213.956 356.418 225.553V400H299.263V32.22H356.418V179.332C371.659 166.41 385.907 157.133 399.16 151.5C412.413 145.867 425.998 143.051 439.914 143.051C464.101 143.051 482.49 150.837 495.081 166.41C507.672 181.651 513.967 203.188 513.967 231.02V400H456.812V237.978C456.812 210.146 445.381 196.23 422.519 196.23Z" fill="black"/>
<path d="M52.481 566.023V563.84H69.982V566.023H62.434V589H60.029V566.023H52.481ZM100.064 578.714V589H97.6589V563.84H105.17C107.439 563.84 109.191 564.444 110.424 565.653C111.682 566.837 112.311 568.44 112.311 570.463V572.054C112.311 573.559 111.953 574.854 111.238 575.939C110.523 577.024 109.487 577.801 108.13 578.27C109.215 579.972 110.227 581.723 111.164 583.524C112.126 585.325 113.014 587.15 113.828 589H111.016C110.276 587.224 109.462 585.485 108.574 583.783C107.686 582.056 106.736 580.367 105.725 578.714H100.064ZM105.17 566.023H100.064V576.531H105.17C106.551 576.531 107.661 576.136 108.5 575.347C109.363 574.533 109.795 573.435 109.795 572.054V570.463C109.795 569.057 109.363 567.972 108.5 567.207C107.661 566.418 106.551 566.023 105.17 566.023ZM155.959 589L153.813 582.525H143.638L141.529 589H139.235L147.597 563.84H150.002L158.401 589H155.959ZM145.932 575.569L144.341 580.379H153.073L151.482 575.569L148.707 566.985L145.932 575.569ZM187.039 579.269C187.039 584.548 189.061 587.187 193.107 587.187C193.97 587.187 194.821 587.088 195.66 586.891C196.498 586.694 197.473 586.336 198.583 585.818L199.434 587.853C198.324 588.371 197.238 588.753 196.178 589C195.117 589.247 194.081 589.37 193.07 589.37C190.307 589.37 188.186 588.494 186.706 586.743C185.25 584.992 184.523 582.5 184.523 579.269V573.571C184.523 570.34 185.25 567.848 186.706 566.097C188.186 564.346 190.307 563.47 193.07 563.47C194.081 563.47 195.142 563.593 196.252 563.84C197.362 564.087 198.422 564.469 199.434 564.987L198.62 567.022C196.77 566.109 194.92 565.653 193.07 565.653C189.049 565.653 187.039 568.292 187.039 573.571V579.269ZM242.071 589L234.264 576.531C233.13 577.715 231.872 578.936 230.49 580.194V589H228.085V563.84H230.49V577.456C233.105 575.039 235.251 572.732 236.928 570.537C238.606 568.342 240.049 566.109 241.257 563.84H243.81C243.046 565.271 242.281 566.603 241.516 567.836C240.752 569.045 239.925 570.216 239.037 571.351C238.149 572.486 237.15 573.682 236.04 574.94L245.031 589H242.071ZM310.538 579.01V589H308.133V579.01L300.437 563.84H303.027L309.428 576.531L315.718 563.84H318.197L310.538 579.01ZM361.36 573.571V579.232C361.36 581.279 361.015 583.068 360.324 584.597C359.633 586.102 358.622 587.273 357.29 588.112C355.983 588.951 354.379 589.37 352.48 589.37C349.643 589.37 347.448 588.445 345.894 586.595C344.365 584.745 343.6 582.291 343.6 579.232V573.571C343.6 571.524 343.945 569.748 344.636 568.243C345.327 566.738 346.338 565.567 347.67 564.728C349.002 563.889 350.605 563.47 352.48 563.47C354.355 563.47 355.946 563.889 357.253 564.728C358.585 565.567 359.596 566.738 360.287 568.243C361.002 569.748 361.36 571.524 361.36 573.571ZM358.844 573.571C358.844 571.08 358.289 569.143 357.179 567.762C356.094 566.356 354.527 565.653 352.48 565.653C350.457 565.653 348.891 566.356 347.781 567.762C346.671 569.143 346.116 571.08 346.116 573.571V579.232C346.116 581.699 346.671 583.647 347.781 585.078C348.891 586.484 350.457 587.187 352.48 587.187C354.527 587.187 356.094 586.484 357.179 585.078C358.289 583.647 358.844 581.699 358.844 579.232V573.571ZM391.269 563.84H393.785V579.972C393.785 582.217 394.241 583.98 395.154 585.263C396.091 586.546 397.546 587.187 399.52 587.187C401.518 587.187 402.973 586.546 403.886 585.263C404.798 583.98 405.255 582.217 405.255 579.972V563.84H407.771V579.972C407.771 582.957 407.08 585.275 405.699 586.928C404.342 588.556 402.282 589.37 399.52 589.37C396.757 589.37 394.685 588.556 393.304 586.928C391.947 585.275 391.269 582.957 391.269 579.972V563.84ZM441.159 578.714V589H438.754V563.84H446.265C448.534 563.84 450.286 564.444 451.519 565.653C452.777 566.837 453.406 568.44 453.406 570.463V572.054C453.406 573.559 453.048 574.854 452.333 575.939C451.618 577.024 450.582 577.801 449.225 578.27C450.31 579.972 451.322 581.723 452.259 583.524C453.221 585.325 454.109 587.15 454.923 589H452.111C451.371 587.224 450.557 585.485 449.669 583.783C448.781 582.056 447.831 580.367 446.82 578.714H441.159ZM446.265 566.023H441.159V576.531H446.265C447.646 576.531 448.756 576.136 449.595 575.347C450.458 574.533 450.89 573.435 450.89 572.054V570.463C450.89 569.057 450.458 567.972 449.595 567.207C448.756 566.418 447.646 566.023 446.265 566.023ZM530.631 587.15C529.866 587.693 528.855 588.198 527.597 588.667C526.339 589.136 524.809 589.37 523.009 589.37C520.172 589.37 517.989 588.445 516.46 586.595C514.93 584.745 514.166 582.291 514.166 579.232V573.571C514.166 570.34 514.93 567.848 516.46 566.097C518.014 564.346 520.209 563.47 523.046 563.47C524.18 563.47 525.364 563.593 526.598 563.84C527.856 564.087 529.04 564.469 530.15 564.987L529.336 567.022C528.275 566.553 527.214 566.208 526.154 565.986C525.093 565.764 524.057 565.653 523.046 565.653C518.803 565.653 516.682 568.292 516.682 573.571V579.232C516.682 581.723 517.224 583.684 518.31 585.115C519.42 586.546 521.048 587.261 523.194 587.261C525.216 587.261 526.943 586.817 528.374 585.929V578.418H523.305V576.235H530.631V587.15ZM562.986 578.714V589H560.581V563.84H568.092C570.361 563.84 572.113 564.444 573.346 565.653C574.604 566.837 575.233 568.44 575.233 570.463V572.054C575.233 573.559 574.875 574.854 574.16 575.939C573.445 577.024 572.409 577.801 571.052 578.27C572.137 579.972 573.149 581.723 574.086 583.524C575.048 585.325 575.936 587.15 576.75 589H573.938C573.198 587.224 572.384 585.485 571.496 583.783C570.608 582.056 569.658 580.367 568.647 578.714H562.986ZM568.092 566.023H562.986V576.531H568.092C569.473 576.531 570.583 576.136 571.422 575.347C572.285 574.533 572.717 573.435 572.717 572.054V570.463C572.717 569.057 572.285 567.972 571.422 567.207C570.583 566.418 569.473 566.023 568.092 566.023ZM622.285 573.571V579.232C622.285 581.279 621.94 583.068 621.249 584.597C620.558 586.102 619.547 587.273 618.215 588.112C616.908 588.951 615.304 589.37 613.405 589.37C610.568 589.37 608.373 588.445 606.819 586.595C605.29 584.745 604.525 582.291 604.525 579.232V573.571C604.525 571.524 604.87 569.748 605.561 568.243C606.252 566.738 607.263 565.567 608.595 564.728C609.927 563.889 611.53 563.47 613.405 563.47C615.28 563.47 616.871 563.889 618.178 564.728C619.51 565.567 620.521 566.738 621.212 568.243C621.927 569.748 622.285 571.524 622.285 573.571ZM619.769 573.571C619.769 571.08 619.214 569.143 618.104 567.762C617.019 566.356 615.452 565.653 613.405 565.653C611.382 565.653 609.816 566.356 608.706 567.762C607.596 569.143 607.041 571.08 607.041 573.571V579.232C607.041 581.699 607.596 583.647 608.706 585.078C609.816 586.484 611.382 587.187 613.405 587.187C615.452 587.187 617.019 586.484 618.104 585.078C619.214 583.647 619.769 581.699 619.769 579.232V573.571ZM654.784 574.94L656.819 585.485L663.146 563.84H665.477L671.841 585.559L673.876 574.94L676.244 563.84H678.501L673.062 589H670.62L664.293 567.281L657.892 589H655.413L650.011 563.84H652.416L654.784 574.94ZM703.529 566.023V563.84H721.03V566.023H713.482V589H711.077V566.023H703.529ZM763.137 589V577.345H751.112V589H748.707V563.84H751.112V575.162H763.137V563.84H765.542V589H763.137Z" fill="white"/>
</g>
<defs>
<clipPath id="clip0_341_8">
<rect width="823" height="659" fill="white"/>
</clipPath>
</defs>
</svg>
